<svg width="48" height="49" viewBox="0 0 48 49" fill="none" xmlns="http://www.w3.org/2000/svg">
<ellipse cx="24" cy="24.5" rx="24" ry="24.5" fill="#222222"/>
<mask id="mask0_1_9" style="mask-type:alpha" maskUnits="userSpaceOnUse" x="9" y="9" width="29" height="31">
<rect x="9.36584" y="9.8" width="28.0976" height="29.4" fill="#D9D9D9"/>
</mask>
<g mask="url(#mask0_1_9)">
<path d="M14.0488 34.3C13.4049 34.3 12.8536 34.0601 12.3951 33.5803C11.9366 33.1005 11.7073 32.5237 11.7073 31.85V17.15C11.7073 16.4762 11.9366 15.8995 12.3951 15.4197C12.8536 14.9399 13.4049 14.7 14.0488 14.7H32.7805C33.4244 14.7 33.9756 14.9399 34.4341 15.4197C34.8927 15.8995 35.1219 16.4762 35.1219 17.15V31.85C35.1219 32.5237 34.8927 33.1005 34.4341 33.5803C33.9756 34.0601 33.4244 34.3 32.7805 34.3H14.0488ZM23.4146 25.725L14.0488 19.6V31.85H32.7805V19.6L23.4146 25.725ZM23.4146 23.275L32.7805 17.15H14.0488L23.4146 23.275ZM14.0488 19.6V17.15V31.85V19.6Z" fill="white"/>
</g>
</svg>
