<svg width="23" height="23" viewBox="0 0 23 23" fill="none" xmlns="http://www.w3.org/2000/svg">
<mask id="mask0_11_7" style="mask-type:alpha" maskUnits="userSpaceOnUse" x="0" y="0" width="23" height="23">
<rect width="23" height="23" fill="#D9D9D9"/>
</mask>
<g mask="url(#mask0_11_7)">
<path d="M18.6728 19.3141L12.6721 13.3135C12.1929 13.7214 11.6419 14.0371 11.019 14.2607C10.3961 14.4844 9.77008 14.5962 9.14102 14.5962C7.60609 14.5962 6.30703 14.0649 5.24383 13.0022C4.18063 11.9396 3.64902 10.6413 3.64902 9.10716C3.64902 7.57306 4.18033 6.27371 5.24295 5.20909C6.30556 4.14448 7.60392 3.61217 9.13802 3.61217C10.6721 3.61217 11.9715 4.14377 13.0361 5.20696C14.1007 6.27015 14.633 7.56922 14.633 9.10417C14.633 9.77008 14.5151 10.4145 14.2792 11.0374C14.0433 11.6603 13.7337 12.193 13.3503 12.6353L19.351 18.6359L18.6728 19.3141ZM9.14102 13.6378C10.4127 13.6378 11.4862 13.2001 12.3616 12.3247C13.237 11.4493 13.6747 10.3758 13.6747 9.10417C13.6747 7.83254 13.237 6.75902 12.3616 5.88362C11.4862 5.00821 10.4127 4.57051 9.14102 4.57051C7.86939 4.57051 6.79587 5.00821 5.92047 5.88362C5.04508 6.75902 4.60738 7.83254 4.60738 9.10417C4.60738 10.3758 5.04508 11.4493 5.92047 12.3247C6.79587 13.2001 7.86939 13.6378 9.14102 13.6378Z" fill="black"/>
</g>
</svg>
