<svg width="48" height="48" viewBox="0 0 48 48" fill="none" xmlns="http://www.w3.org/2000/svg">
<circle cx="24" cy="24" r="24" fill="#222222"/>
<path d="M28.7351 13.2H18.6042C13.5388 13.2 12.8781 18.8436 12.8781 19.0693V29.7921C12.8781 34.4875 16.9157 35.8871 18.9346 36H29.1756C33.8446 36 35.0852 31.5604 35.122 29.3406V19.7465C35.122 14.5996 30.864 13.2376 28.7351 13.2Z" stroke="white" stroke-width="2"/>
<path d="M30.439 24.6C30.439 28.2451 27.5562 31.2 24 31.2C20.4438 31.2 17.561 28.2451 17.561 24.6C17.561 20.9549 20.4438 18 24 18C27.5562 18 30.439 20.9549 30.439 24.6ZM19.5724 24.6C19.5724 27.1064 21.5547 29.1383 24 29.1383C26.4453 29.1383 28.4276 27.1064 28.4276 24.6C28.4276 22.0936 26.4453 20.0617 24 20.0617C21.5547 20.0617 19.5724 22.0936 19.5724 24.6Z" fill="white"/>
<path d="M31.6098 18C31.6098 18.6627 31.0856 19.2 30.439 19.2C29.7924 19.2 29.2683 18.6627 29.2683 18C29.2683 17.3373 29.7924 16.8 30.439 16.8C31.0856 16.8 31.6098 17.3373 31.6098 18Z" fill="white"/>
</svg>
