<svg width="48" height="48" viewBox="0 0 48 48" fill="none" xmlns="http://www.w3.org/2000/svg">
<circle cx="24" cy="24" r="24" fill="#222222"/>
<path d="M29.5905 18.2408C29.8757 17.8118 30.617 17.1377 31.3014 17.8731C32.1568 18.7923 33.1833 20.2631 33.6965 21.55C34.1071 22.5796 33.4114 22.9595 33.0122 23.0208L28.2219 24.3077C27.9367 24.4303 27.2296 24.5651 26.6821 24.1239C25.9978 23.5723 26.511 22.6531 26.6821 22.4693C26.819 22.3222 27.326 21.5263 27.5624 21.1467L29.5905 18.2408Z" fill="white"/>
<path d="M28.9062 27.0654L33.0122 28.5362C33.5255 28.6588 34.3809 29.198 33.6965 30.3747C32.8411 31.8454 32.8411 31.8454 31.4725 33.5C30.3775 34.8237 29.6476 33.8065 29.4195 33.1324L27.8797 30.3747L26.8532 28.5362C26.5681 27.6987 26.5795 26.232 28.9062 27.0654Z" fill="white"/>
<path d="M24.6291 29.2716V34.787C24.6291 35.3385 24.2869 36.3313 22.9183 35.89C21.5496 35.4488 20.6372 35.0934 20.352 34.9708L19.4966 34.4193C19.2115 34.2354 18.7096 33.7574 18.9834 33.3162C19.2571 32.875 20.0099 31.9067 20.352 31.4777L22.2339 29.0877L22.7472 28.5362C23.2604 28.0459 24.3554 27.5067 24.6291 29.2716Z" fill="white"/>
<path d="M21.3785 26.5139L17.2725 27.9847C16.6452 28.2911 15.3906 28.6097 15.3906 27.4331C15.2537 26.2565 15.2195 25.7172 15.2195 25.5946L15.5617 23.0208C15.6757 22.5019 16.1434 21.583 17.1014 22.0586C18.0595 22.5342 20.6942 23.6336 21.8918 24.1239C22.291 24.369 22.9183 25.1166 22.2339 26.1462L21.3785 26.5139Z" fill="white"/>
<path d="M17.4436 12.7254L21.7207 20.0793C22.481 21.1687 22.8291 21.7339 23.4315 22.0586C23.5456 22.1066 23.8421 22.219 24.1159 22.2854C24.8002 21.7339 24.6861 19.9567 24.6291 19.16C24.458 16.7087 24.1159 11.6223 24.1159 10.8869C23.9448 9.9677 23.7737 9.78385 22.7472 9.60001C19.4966 10.1515 18.1279 11.0708 17.4436 11.4385C17.033 11.8797 17.2725 12.4803 17.4436 12.7254Z" fill="white"/>
</svg>
